<?xml version="1.0" encoding="UTF-8" standalone="no"?>
<svg
   xmlns:dc="http://purl.org/dc/elements/1.1/"
   xmlns:cc="http://creativecommons.org/ns#"
   xmlns:rdf="http://www.w3.org/1999/02/22-rdf-syntax-ns#"
   xmlns:svg="http://www.w3.org/2000/svg"
   xmlns="http://www.w3.org/2000/svg"
   xmlns:xlink="http://www.w3.org/1999/xlink"
   xmlns:sodipodi="http://sodipodi.sourceforge.net/DTD/sodipodi-0.dtd"
   xmlns:inkscape="http://www.inkscape.org/namespaces/inkscape"
   width="856.12762"
   height="429.84232"
   viewBox="0 0 856.12761 429.84232"
   version="1.1"
   id="svg488"
   sodipodi:docname="solarium.svg"
   inkscape:version="0.92.4 (5da689c313, 2019-01-14)">
  <metadata
     id="metadata492">
    <rdf:RDF>
      <cc:Work
         rdf:about="">
        <dc:format>image/svg+xml</dc:format>
        <dc:type
           rdf:resource="http://purl.org/dc/dcmitype/StillImage" />
      </cc:Work>
    </rdf:RDF>
  </metadata>
  <sodipodi:namedview
     pagecolor="#ffffff"
     bordercolor="#666666"
     borderopacity="1"
     objecttolerance="10"
     gridtolerance="10"
     guidetolerance="10"
     inkscape:pageopacity="0"
     inkscape:pageshadow="2"
     inkscape:window-width="1920"
     inkscape:window-height="1080"
     id="namedview490"
     showgrid="false"
     inkscape:zoom="1.2924079"
     inkscape:cx="553.4732"
     inkscape:cy="213.92376"
     inkscape:window-x="0"
     inkscape:window-y="0"
     inkscape:window-maximized="1"
     inkscape:current-layer="svg488" />
  <circle
     style="fill:#fcfcfc;stroke:#000000;stroke-width:1"
     id="rect34"
     r="53"
     cy="250.05573"
     cx="424.9028" />
  <g
     transform="rotate(15,206.22406,-31.389113)"
     id="g52">
    <rect
       x="217"
       y="1"
       width="52"
       height="52"
       rx="5"
       id="rect44"
       style="fill:#fcfcfc;stroke:#000000;stroke-width:1" />
  </g>
  <g
     transform="rotate(15,206.22406,-31.389113)"
     id="g62">
    <rect
       x="163"
       y="14.5"
       width="52"
       height="52"
       rx="5"
       id="rect54"
       style="fill:#fcfcfc;stroke:#000000;stroke-width:1" />
  </g>
  <g
     transform="rotate(15,206.22406,-31.389113)"
     id="g72">
    <rect
       x="109"
       y="28"
       width="52"
       height="52"
       rx="5"
       id="rect64"
       style="fill:#fcfcfc;stroke:#000000;stroke-width:1" />
      </g>
  <g
     transform="rotate(15,206.22406,-31.389113)"
     id="g82">
    <rect
       x="271"
       y="28"
       width="52"
       height="52"
       rx="5"
       id="rect74"
       style="fill:#fcfcfc;stroke:#000000;stroke-width:1" />
  </g>
  <g
     transform="rotate(15,206.22406,-31.389113)"
     id="g92">
    <rect
       x="55"
       y="41.5"
       width="52"
       height="52"
       rx="5"
       id="rect84"
       style="fill:#fcfcfc;stroke:#000000;stroke-width:1" />
  </g>
  <g
     transform="rotate(15,206.22406,-31.389113)"
     id="g102">
    <rect
       x="325"
       y="41.5"
       width="52"
       height="52"
       rx="5"
       id="rect94"
       style="fill:#fcfcfc;stroke:#000000;stroke-width:1" />
  </g>
  <g
     transform="rotate(15,206.22406,-31.389113)"
     id="g112">
    <rect
       x="217"
       y="55"
       width="52"
       height="52"
       rx="5"
       id="rect104"
       style="fill:#fcfcfc;stroke:#000000;stroke-width:1" />
  </g>
  <g
     transform="rotate(15,206.22406,-31.389113)"
     id="g122">
    <rect
       x="163"
       y="68.5"
       width="52"
       height="52"
       rx="5"
       id="rect114"
       style="fill:#fcfcfc;stroke:#000000;stroke-width:1" />
  </g>
  <g
     transform="rotate(15,206.22406,-31.389113)"
     id="g132">
    <rect
       x="109"
       y="82"
       width="52"
       height="52"
       rx="5"
       id="rect124"
       style="fill:#fcfcfc;stroke:#000000;stroke-width:1" />
      </g>
  <g
     transform="rotate(15,206.22406,-31.389113)"
     id="g142">
    <rect
       x="271"
       y="82"
       width="52"
       height="52"
       rx="5"
       id="rect134"
       style="fill:#fcfcfc;stroke:#000000;stroke-width:1" />
      </g>
  <g
     transform="rotate(15,206.22406,-31.389113)"
     id="g152">
    <rect
       x="55"
       y="95.5"
       width="52"
       height="52"
       rx="5"
       id="rect144"
       style="fill:#fcfcfc;stroke:#000000;stroke-width:1" />
  </g>
  <g
     transform="rotate(15,206.22406,-31.389113)"
     id="g162">
    <rect
       x="325"
       y="95.5"
       width="52"
       height="52"
       rx="5"
       id="rect154"
       style="fill:#fcfcfc;stroke:#000000;stroke-width:1" />
      </g>
  <g
     transform="rotate(15,206.22406,-31.389113)"
     id="g172">
    <rect
       x="217"
       y="109"
       width="52"
       height="52"
       rx="5"
       id="rect164"
       style="fill:#fcfcfc;stroke:#000000;stroke-width:1" />
  </g>
  <g
     transform="rotate(15,206.22406,-31.389113)"
     id="g182">
    <rect
       x="163"
       y="122.5"
       width="52"
       height="52"
       rx="5"
       id="rect174"
       style="fill:#fcfcfc;stroke:#000000;stroke-width:1" />
      </g>
  <g
     transform="rotate(15,206.22406,-31.389113)"
     id="g192">
    <rect
       x="109"
       y="136"
       width="52"
       height="52"
       rx="5"
       id="rect184"
       style="fill:#fcfcfc;stroke:#000000;stroke-width:1" />
  </g>
  <g
     transform="rotate(15,206.22406,-31.389113)"
     id="g202">
    <rect
       x="271"
       y="136"
       width="52"
       height="52"
       rx="5"
       id="rect194"
       style="fill:#fcfcfc;stroke:#000000;stroke-width:1" />
      </g>
  <g
     transform="rotate(15,206.22406,-31.389113)"
     id="g212">
    <rect
       x="55"
       y="149.5"
       width="52"
       height="52"
       rx="5"
       id="rect204"
       style="fill:#fcfcfc;stroke:#000000;stroke-width:1" />
      </g>
  <g
     transform="rotate(15,206.22406,-31.389113)"
     id="g222">
    <rect
       x="325"
       y="149.5"
       width="52"
       height="52"
       rx="5"
       id="rect214"
       style="fill:#fcfcfc;stroke:#000000;stroke-width:1" />
      </g>
  <g
     transform="rotate(30,276.5458,321.73049)"
     id="g232">
    <rect
       x="190"
       y="271"
       width="52"
       height="52"
       rx="5"
       id="rect224"
       style="fill:#fcfcfc;stroke:#000000;stroke-width:1" />
  </g>
  <g
     transform="rotate(30,276.5458,321.73049)"
     id="g242">
    <rect
       x="244"
       y="284.5"
       width="52"
       height="52"
       rx="5"
       id="rect234"
       style="fill:#fcfcfc;stroke:#000000;stroke-width:1" />
      </g>
  <g
     transform="rotate(30,276.5458,321.73049)"
     id="g252">
    <rect
       x="298"
       y="311.5"
       width="52"
       height="52"
       rx="5"
       id="rect244"
       style="fill:#fcfcfc;stroke:#000000;stroke-width:1" />
  </g>
  <g
     transform="rotate(30,276.5458,497.23049)"
     id="g262">
    <rect
       x="136"
       y="419.5"
       width="52"
       height="52"
       rx="5"
       id="rect254"
       style="fill:#fcfcfc;stroke:#000000;stroke-width:1" />
  </g>
  <g
     transform="rotate(-30,491.85701,501.32524)"
     id="g272">
    <rect
       x="662.5"
       y="460"
       width="52"
       height="52"
       rx="5"
       id="rect264"
       style="fill:#fcfcfc;stroke:#000000;stroke-width:1" />
      </g>
  <g
     transform="rotate(-30,572.85701,325.82524)"
     id="g282">
    <rect
       x="608.5"
       y="271"
       width="52"
       height="52"
       rx="5"
       id="rect274"
       style="fill:#fcfcfc;stroke:#000000;stroke-width:1" />
      </g>
  <g
     transform="rotate(-30,572.85701,325.82524)"
     id="g292">
    <rect
       x="554.5"
       y="284.5"
       width="52"
       height="52"
       rx="5"
       id="rect284"
       style="fill:#fcfcfc;stroke:#000000;stroke-width:1" />
  </g>
  <g
     transform="rotate(-30,572.85701,325.82524)"
     id="g302">
    <rect
       x="500.5"
       y="311.5"
       width="52"
       height="52"
       rx="5"
       id="rect294"
       style="fill:#fcfcfc;stroke:#000000;stroke-width:1" />
      </g>
  <g
     transform="rotate(-10,120.30097,-20.95169)"
     id="g312">
    <rect
       x="595"
       y="109"
       width="52"
       height="52"
       rx="5"
       id="rect304"
       style="fill:#fcfcfc;stroke:#000000;stroke-width:1" />
      </g>
  <g
     transform="rotate(-10,120.30097,-20.95169)"
     id="g322">
    <rect
       x="649"
       y="122.5"
       width="52"
       height="52"
       rx="5"
       id="rect314"
       style="fill:#fcfcfc;stroke:#000000;stroke-width:1" />
      </g>
  <g
     transform="rotate(-10,120.30097,-20.95169)"
     id="g332">
    <rect
       x="541"
       y="136"
       width="52"
       height="52"
       rx="5"
       id="rect324"
       style="fill:#fcfcfc;stroke:#000000;stroke-width:1" />
      </g>
  <g
     transform="rotate(-10,120.30097,-20.95169)"
     id="g342">
    <rect
       x="703"
       y="136"
       width="52"
       height="52"
       rx="5"
       id="rect334"
       style="fill:#fcfcfc;stroke:#000000;stroke-width:1" />
      </g>
  <g
     transform="rotate(-10,120.30097,-20.95169)"
     id="g352">
    <rect
       x="487"
       y="149.5"
       width="52"
       height="52"
       rx="5"
       id="rect344"
       style="fill:#fcfcfc;stroke:#000000;stroke-width:1" />
      </g>
  <g
     transform="rotate(-10,120.30097,-20.95169)"
     id="g362">
    <rect
       x="757"
       y="149.5"
       width="52"
       height="52"
       rx="5"
       id="rect354"
       style="fill:#fcfcfc;stroke:#000000;stroke-width:1" />
      </g>
  <g
     transform="rotate(-10,120.30097,-20.95169)"
     id="g372">
    <rect
       x="595"
       y="163"
       width="52"
       height="52"
       rx="5"
       id="rect364"
       style="fill:#fcfcfc;stroke:#000000;stroke-width:1" />
      </g>
  <g
     transform="rotate(-10,120.30097,-20.95169)"
     id="g382">
    <rect
       x="649"
       y="176.5"
       width="52"
       height="52"
       rx="5"
       id="rect374"
       style="fill:#fcfcfc;stroke:#000000;stroke-width:1" />
      </g>
  <g
     transform="rotate(-10,120.30097,-20.95169)"
     id="g392">
    <rect
       x="541"
       y="190"
       width="52"
       height="52"
       rx="5"
       id="rect384"
       style="fill:#fcfcfc;stroke:#000000;stroke-width:1" />
      </g>
  <g
     transform="rotate(-10,120.30097,-20.95169)"
     id="g402">
    <rect
       x="703"
       y="190"
       width="52"
       height="52"
       rx="5"
       id="rect394"
       style="fill:#fcfcfc;stroke:#000000;stroke-width:1" />
      </g>
  <g
     transform="rotate(-10,120.30097,-20.95169)"
     id="g412">
    <rect
       x="487"
       y="203.5"
       width="52"
       height="52"
       rx="5"
       id="rect404"
       style="fill:#fcfcfc;stroke:#000000;stroke-width:1" />
      </g>
  <g
     transform="rotate(-10,120.30097,-20.95169)"
     id="g422">
    <rect
       x="757"
       y="203.5"
       width="52"
       height="52"
       rx="5"
       id="rect414"
       style="fill:#fcfcfc;stroke:#000000;stroke-width:1" />
      </g>
  <g
     transform="rotate(-10,120.30097,-20.95169)"
     id="g432">
    <rect
       x="595"
       y="217"
       width="52"
       height="52"
       rx="5"
       id="rect424"
       style="fill:#fcfcfc;stroke:#000000;stroke-width:1" />
      </g>
  <g
     transform="rotate(-10,120.30097,-20.95169)"
     id="g442">
    <rect
       x="649"
       y="230.5"
       width="52"
       height="52"
       rx="5"
       id="rect434"
       style="fill:#fcfcfc;stroke:#000000;stroke-width:1" />
      </g>
  <g
     transform="rotate(-10,120.30097,-20.95169)"
     id="g452">
    <rect
       x="541"
       y="244"
       width="52"
       height="52"
       rx="5"
       id="rect444"
       style="fill:#fcfcfc;stroke:#000000;stroke-width:1" />
      </g>
  <g
     transform="rotate(-10,120.30097,-20.95169)"
     id="g462">
    <rect
       x="703"
       y="244"
       width="52"
       height="52"
       rx="5"
       id="rect454"
       style="fill:#fcfcfc;stroke:#000000;stroke-width:1" />
  </g>
  <g
     transform="rotate(-10,120.30097,-20.95169)"
     id="g472">
    <rect
       x="487"
       y="257.5"
       width="52"
       height="52"
       rx="5"
       id="rect464"
       style="fill:#fcfcfc;stroke:#000000;stroke-width:1" />
  </g>
  <g
     transform="rotate(-10,120.30097,-20.95169)"
     id="g482">
    <rect
       x="757"
       y="257.5"
       width="52"
       height="52"
       rx="5"
       id="rect474"
       style="fill:#fcfcfc;stroke:#000000;stroke-width:1" />
      </g>
</svg>
